# xmcd CD database file
#
# Track frame offsets:
#	150
#	12677
#	35535
#	47737
#	66300
#	92620
#	120500
#	144710
#	154925
#	179512
#	195470
#	203892
#	220092
#	238717
#
# Disc length: 3715 seconds
#
# Revision: 10
# Processed by: cddbd v1.5.2PL0 Copyright (c) Steve Scherf et al.
# Submitted via: CDex 1.51
#
DISCID=cd0e810e
DTITLE=Paul Personne - Route 97 - CD1 - Live @ L'Olympia Paris, 1, 2 and 3 Avril 1997
DYEAR=1997
DGENRE=Blues
TTITLE0=En Route (Live)
TTITLE1=Encore A L'essai (Live)
TTITLE2=Que L'rock Ait Ton Ame (Live)
TTITLE3=Attaqu' (Live)
TTITLE4=Doute Chronique (Live)
TTITLE5=Où Est l'Paradis (Live)
TTITLE6=Miss Terre (Live)
TTITLE7=Ça M'va (Live)
TTITLE8=Plus Jamais M'laisser Blueser (Live)
TTITLE9=Plus Loin D'ici (Live)
TTITLE10=Flashes (Instrumental) (Live)
TTITLE11=Quelqu'un Appelle (Live)
TTITLE12=Célia (Instrumental) (Live)
TTITLE13=Rêve Sidéral... D'un Naïf Idéal (Live)
EXTD=YEAR: 1997
EXTT0=
EXTT1=
EXTT2=
EXTT3=
EXTT4=
EXTT5=
EXTT6=
EXTT7=
EXTT8=
EXTT9=
EXTT10=
EXTT11=
EXTT12=
EXTT13=
PLAYORDER=
